<?xml version="1.0" encoding="UTF-8"?>
<svg xmlns="http://www.w3.org/2000/svg" xmlns:xlink="http://www.w3.org/1999/xlink" width="4000" height="4000" viewBox="0 0 4000 4000">

<path fill-rule="evenodd" fill="rgb(10.984802%, 10.984802%, 10.205078%)" fill-opacity="1" d="M 3486.839844 1335.050781 C 3486.839844 1335.050781 3043.148438 1433.910156 2939.25 1429.898438 C 2835.351562 1425.890625 2683.710938 1411.199219 2675.289062 1281.609375 C 2659.378906 1036.949219 3396.25 1307.691406 3486.839844 1335.050781 "/>
<path fill-rule="evenodd" fill="rgb(92.576599%, 92.576599%, 91.796875%)" fill-opacity="1" d="M 440.644531 2969.339844 C 440.644531 2969.339844 646.378906 3049.496094 785.316406 2966.671875 C 924.253906 2883.839844 1880.789062 2330.761719 1880.789062 2330.761719 L 1717.890625 2318.300781 L 440.644531 2969.339844 "/>
<path fill-rule="evenodd" fill="rgb(98.4375%, 96.484375%, 90.625%)" fill-opacity="1" d="M 1959.578125 2658.058594 C 2909.390625 2928.640625 3221.648438 2091.070312 3239.589844 1329.480469 L 2323.390625 1311.710938 L 1479.25 2402.96875 C 1479.25 2402.96875 1617.578125 2572.558594 1959.578125 2658.058594 "/>
<path fill-rule="evenodd" fill="rgb(92.576599%, 92.576599%, 91.796875%)" fill-opacity="1" d="M 884.40625 2943.730469 C 884.40625 2943.730469 1099.101562 2995.300781 1225.550781 2894.429688 C 1352 2793.558594 2224.871094 2116.109375 2224.871094 2116.109375 L 2061.789062 2125.808594 L 884.40625 2943.730469 "/>
<path fill-rule="evenodd" fill="rgb(92.576599%, 92.576599%, 91.796875%)" fill-opacity="1" d="M 2207.050781 1462.109375 L 1093.820312 2798.261719 C 1054.558594 2845.378906 3967.738281 2343.859375 2207.050781 1462.109375 "/>
<path fill-rule="evenodd" fill="rgb(100%, 100%, 100%)" fill-opacity="1" d="M 2081.628906 1612.941406 L 1093.769531 2798.601562 C 1058.941406 2840.410156 3644.019531 2395.378906 2081.628906 1612.941406 "/>
<path fill-rule="evenodd" fill="rgb(100%, 100%, 99.21875%)" fill-opacity="1" d="M 2869.378906 998.839844 C 2869.378906 998.839844 2436.539062 940.058594 2313.628906 1340.839844 C 2190.730469 1741.621094 2741.128906 1666.808594 2741.128906 1666.808594 C 3226.328125 1639.140625 3535.121094 1108.160156 2869.378906 998.839844 "/>
<path fill-rule="evenodd" fill="rgb(10.984802%, 10.984802%, 10.205078%)" fill-opacity="1" d="M 1932 1792.871094 L 1093.71875 2799.011719 C 1064.160156 2834.488281 3257.828125 2456.839844 1932 1792.871094 "/>
<path fill-rule="evenodd" fill="rgb(100%, 100%, 100%)" fill-opacity="1" d="M 2995.289062 1197.449219 C 3039.789062 1197.449219 3075.859375 1233.519531 3075.859375 1278.019531 C 3075.859375 1322.519531 3039.789062 1358.589844 2995.289062 1358.589844 C 2950.789062 1358.589844 2914.71875 1322.519531 2914.71875 1278.019531 C 2914.71875 1233.519531 2950.789062 1197.449219 2995.289062 1197.449219 "/>
<path fill-rule="evenodd" fill="rgb(10.205078%, 10.205078%, 10.205078%)" fill-opacity="1" d="M 2995.289062 1224.148438 C 3025.050781 1224.148438 3049.171875 1248.269531 3049.171875 1278.019531 C 3049.171875 1307.769531 3025.050781 1331.890625 2995.289062 1331.890625 C 2965.539062 1331.890625 2941.421875 1307.769531 2941.421875 1278.019531 C 2941.421875 1248.269531 2965.539062 1224.148438 2995.289062 1224.148438 "/>
<path fill-rule="evenodd" fill="rgb(10.984802%, 10.984802%, 10.205078%)" fill-opacity="1" d="M 2310.511719 1527.71875 C 2310.511719 1527.71875 2090.820312 1601.621094 1976.511719 1738.820312 C 1862.199219 1876.011719 2435.671875 1133.75 2435.671875 1133.75 L 2310.511719 1527.71875 "/>
<path fill-rule="evenodd" fill="rgb(10.984802%, 10.984802%, 10.205078%)" fill-opacity="1" d="M 3190.648438 1447.199219 C 3104.988281 1561.96875 2937.511719 1655.609375 2741.128906 1666.808594 C 2741.128906 1666.808594 2645.800781 1679.761719 2543.339844 1666 C 2658.148438 1754.578125 2725.53125 1838.558594 2755.078125 1917.738281 C 2946.871094 1895.019531 3111.269531 1805.078125 3209.660156 1678.808594 C 3221.738281 1599.699219 3230.039062 1519.441406 3234.941406 1439.398438 C 3236.609375 1412.230469 3237.878906 1385.078125 3238.78125 1358.011719 C 3228.421875 1388.421875 3212.101562 1418.46875 3190.648438 1447.199219 "/>
<path fill-rule="evenodd" fill="rgb(10.984802%, 10.984802%, 10.205078%)" fill-opacity="1" d="M 2785.910156 1405.738281 C 2911.089844 1411.429688 3029.320312 1383.941406 3124.269531 1327.238281 C 3153.730469 1309.648438 3180.949219 1289.25 3205.441406 1266.148438 C 3218.980469 1253.390625 3231.679688 1239.800781 3243.46875 1225.410156 C 3213.378906 1124.949219 3099.710938 1036.660156 2869.378906 998.839844 C 2869.378906 998.839844 2609.871094 963.589844 2435.671875 1133.75 L 2390.679688 1275.351562 C 2411.761719 1289.191406 2433.769531 1302.210938 2456.660156 1314.300781 C 2468.539062 1320.570312 2480.648438 1326.589844 2493 1332.351562 C 2589.820312 1377.519531 2689.910156 1401.378906 2785.910156 1405.738281 Z M 2928.738281 1323.449219 C 2919.890625 1310.519531 2914.71875 1294.871094 2914.71875 1278.019531 C 2914.71875 1255.03125 2924.351562 1234.289062 2939.800781 1219.609375 C 2954.238281 1205.878906 2973.78125 1197.449219 2995.289062 1197.449219 C 3024.011719 1197.449219 3049.210938 1212.46875 3063.480469 1235.078125 C 3071.328125 1247.511719 3075.859375 1262.238281 3075.859375 1278.019531 C 3075.859375 1295.988281 3069.980469 1312.589844 3060.03125 1326 C 3045.351562 1345.78125 3021.820312 1358.589844 2995.289062 1358.589844 C 2967.648438 1358.589844 2943.25 1344.671875 2928.738281 1323.449219 "/>
<path fill-rule="evenodd" fill="rgb(92.576599%, 92.576599%, 91.796875%)" fill-opacity="1" d="M 2966.488281 1861.539062 C 2967.820312 2053.710938 2888.441406 2263.359375 2731.871094 2435.289062 C 2598.769531 2581.460938 2433.308594 2674.628906 2269.078125 2709.480469 C 2856.21875 2728.511719 3125.269531 2231.488281 3209.660156 1678.808594 C 3150 1755.371094 3066.078125 1818.578125 2966.488281 1861.539062 "/>
</svg>
